<svg xmlns="http://www.w3.org/2000/svg" xmlns:xlink="http://www.w3.org/1999/xlink" width="120" height="120" fill="currentColor" class="bi bi-dpad-fill"><defs><linearGradient id="b"><stop offset="0" stop-color="#c93123" stop-opacity="0"/><stop offset=".5" stop-color="#c6186b" stop-opacity=".5"/><stop offset="1" stop-color="#c400b4"/></linearGradient><linearGradient id="a"><stop offset="0" stop-color="#8c40e1"/><stop offset="1" stop-color="#8c40e1" stop-opacity="0"/></linearGradient><linearGradient xlink:href="#a" id="c" x1="8.5" x2="108.5" y1="59.5" y2="59.5" gradientUnits="userSpaceOnUse"/><linearGradient xlink:href="#b" id="d" x1="8.5" x2="108.5" y1="59.5" y2="59.5" gradientUnits="userSpaceOnUse" spreadMethod="reflect"/></defs><path fill="url(#c)" d="M49 9a9 9 0 0 0-9 10v19a3 3 0 0 1-3 3H18a9 9 0 0 0-10 9v19a9 9 0 0 0 10 9h19a3 3 0 0 1 3 3v19a9 9 0 0 0 9 9h19a9 9 0 0 0 9-9V81a3 3 0 0 1 3-3h19a9 9 0 0 0 9-9V50a9 9 0 0 0-9-9H80a3 3 0 0 1-3-3V19a9 9 0 0 0-9-10zm8 15a2 2 0 0 1 3 0l5 8a2 2 0 0 1-2 2H53a2 2 0 0 1-1-2l5-8zm0 71-5-8a2 2 0 0 1 1-3h10a2 2 0 0 1 2 3l-5 8a2 2 0 0 1-3 0zM31 66l-8-5a2 2 0 0 1 0-3l8-5a2 2 0 0 1 2 1v10a2 2 0 0 1-2 2zm63-5-8 5a2 2 0 0 1-3-2V54a2 2 0 0 1 3-1l8 5a2 2 0 0 1 0 3z" paint-order="fill markers stroke" style="mix-blend-mode:overlay" transform="translate(2)"/><path fill="url(#d)" fill-rule="evenodd" d="M49 9a9 9 0 0 0-9 10v19a3 3 0 0 1-3 3H18a9 9 0 0 0-10 9v19a9 9 0 0 0 10 9h19a3 3 0 0 1 3 3v19a9 9 0 0 0 9 9h19a9 9 0 0 0 9-9V81a3 3 0 0 1 3-3h19a9 9 0 0 0 9-9V50a9 9 0 0 0-9-9H80a3 3 0 0 1-3-3V19a9 9 0 0 0-9-10zm8 15a2 2 0 0 1 3 0l5 8a2 2 0 0 1-2 2H53a2 2 0 0 1-1-2l5-8zm0 71-5-8a2 2 0 0 1 1-3h10a2 2 0 0 1 2 3l-5 8a2 2 0 0 1-3 0zM31 66l-8-5a2 2 0 0 1 0-3l8-5a2 2 0 0 1 2 1v10a2 2 0 0 1-2 2zm63-5-8 5a2 2 0 0 1-3-2V54a2 2 0 0 1 3-1l8 5a2 2 0 0 1 0 3z" style="mix-blend-mode:darken" transform="translate(2)"/></svg>